<svg width="500" height="500" viewBox="0 0 500 500" fill="none" xmlns="http://www.w3.org/2000/svg">
<rect width="500" height="500" fill="#E5E5E5"/>
<path fill-rule="evenodd" clip-rule="evenodd" d="M256.862 224.446L280.524 201.776C281.834 200.522 282.488 199.895 283.292 199.895C284.095 199.895 284.75 200.522 286.059 201.776L304.11 219.07C305.526 220.426 306.234 221.105 306.234 221.958C306.234 222.812 305.526 223.49 304.11 224.847L280.763 247.214C270.985 241.726 262.776 233.877 256.862 224.446ZM255.388 225.858L206.728 272.476C206.284 272.901 206.062 273.114 205.915 273.379C205.769 273.644 205.706 273.945 205.58 274.547L200.028 301.141C199.959 301.473 199.924 301.639 200.018 301.734C200.112 301.83 200.279 301.798 200.612 301.734L228.506 296.389C229.082 296.279 229.37 296.223 229.627 296.091C229.885 295.958 230.096 295.755 230.52 295.349L279.255 248.659C269.538 243.091 261.355 235.246 255.388 225.858Z" fill="white"/>
<path fill-rule="evenodd" clip-rule="evenodd" d="M359 264.449C359 253.389 359 247.859 356.346 243.887C355.197 242.167 353.72 240.69 352 239.541C348.028 236.887 342.498 236.887 331.438 236.887H323.562C312.502 236.887 306.972 236.887 303 239.541C301.28 240.69 299.803 242.167 298.654 243.887C296 247.859 296 253.389 296 264.449C296 275.509 296 281.04 298.654 285.012C299.803 286.732 301.28 288.208 303 289.357C306.47 291.676 311.129 291.969 319.625 292.006V292.012L323.978 300.718C325.429 303.62 329.571 303.62 331.022 300.718L335.375 292.012V292.006C343.871 291.969 348.53 291.676 352 289.357C353.72 288.208 355.197 286.732 356.346 285.012C359 281.04 359 275.509 359 264.449ZM315.688 255.574C315.135 255.574 314.688 256.022 314.688 256.574C314.688 257.127 315.135 257.574 315.688 257.574H339.313C339.865 257.574 340.313 257.127 340.313 256.574C340.313 256.022 339.865 255.574 339.313 255.574H315.688ZM315.688 271.324C315.135 271.324 314.688 271.772 314.688 272.324C314.688 272.877 315.135 273.324 315.688 273.324H327.5C328.052 273.324 328.5 272.877 328.5 272.324C328.5 271.772 328.052 271.324 327.5 271.324H315.688Z" fill="#FFFCFC"/>
<path fill-rule="evenodd" clip-rule="evenodd" d="M200.667 249.417C200.667 241.224 200.667 237.128 198.7 234.185C197.849 232.911 196.756 231.817 195.482 230.966C192.539 229 188.443 229 180.25 229H174.417C166.224 229 162.128 229 159.185 230.966C157.911 231.817 156.817 232.911 155.966 234.185C154 237.128 154 241.224 154 249.417C154 257.609 154 261.706 155.966 264.648C156.817 265.922 157.911 267.016 159.185 267.867C161.756 269.585 165.207 269.802 171.5 269.829V269.833L174.725 276.283C175.799 278.432 178.867 278.432 179.942 276.283L183.167 269.833V269.829C189.46 269.802 192.911 269.585 195.482 267.867C196.756 267.016 197.849 265.922 198.7 264.648C200.667 261.706 200.667 257.609 200.667 249.417ZM168.583 242.583C168.031 242.583 167.583 243.031 167.583 243.583C167.583 244.136 168.031 244.583 168.583 244.583H186.083C186.636 244.583 187.083 244.136 187.083 243.583C187.083 243.031 186.636 242.583 186.083 242.583H168.583ZM168.583 254.25C168.031 254.25 167.583 254.698 167.583 255.25C167.583 255.802 168.031 256.25 168.583 256.25H177.333C177.886 256.25 178.333 255.802 178.333 255.25C178.333 254.698 177.886 254.25 177.333 254.25H168.583Z" fill="#FFFCFC"/>
</svg>
